<?xml version="1.0" encoding="utf-8"?>
<!-- Generator: Adobe Illustrator 21.1.0, SVG Export Plug-In . SVG Version: 6.00 Build 0)  -->
<svg version="1.1" id="Livello_1" xmlns="http://www.w3.org/2000/svg" xmlns:xlink="http://www.w3.org/1999/xlink" x="0px" y="0px"
	 viewBox="0 0 800 800" style="enable-background:new 0 0 800 800;" xml:space="preserve">
<style type="text/css">
	.st0{fill:#3E3E40;}
	.st1{fill:#00588D;}
	.st2{fill:none;}
</style>
<path class="st0" d="M366.3,331.5l-28.4-53.1h-30v53.1h-13.3V211.9h47.8c5.4,0,10.3,0.8,14.9,2.3c4.6,1.5,8.5,3.7,11.7,6.5
	c3.3,2.9,5.8,6.4,7.6,10.5c1.8,4.1,2.7,8.8,2.7,13.9c0,8.7-2.5,15.9-7.5,21.4c-5,5.5-11.6,9.1-19.6,10.7l29.6,54.3H366.3z
	 M359.2,228.8c-4.6-3.6-10.6-5.5-18-5.5h-33.3v43.8h33.3c7.4,0,13.3-1.8,18-5.4c4.6-3.6,6.9-9.1,6.9-16.5
	C366.1,238,363.8,232.4,359.2,228.8"/>
<path class="st0" d="M479.6,302.7c1.3-3.5,1.9-7.4,1.9-11.7v-79.1h13.3V292c0,5.9-1.1,11.4-3.2,16.4c-0.6,1.4-1.2,2.6-1.9,3.9
	L479.6,302.7z M407.8,233.8v-21.9h13.3v34.6L407.8,233.8z M480.9,322.7c-3.5,2.9-7.6,5.2-12.2,6.9c-5.3,2-11.1,2.9-17.4,2.9
	c-6.3,0-12.1-1-17.4-2.9c-5.3-2-9.9-4.7-13.7-8.3c-3.9-3.6-6.9-7.9-9-12.9c-2.2-5-3.2-10.4-3.2-16.4v-39.5l13.3,12.8V291
	c0,4.6,0.7,8.7,2.1,12.4c1.4,3.7,3.4,6.8,6,9.4c2.6,2.6,5.8,4.6,9.5,6c3.7,1.5,7.9,2.2,12.4,2.2c4.5,0,8.7-0.7,12.4-2.2
	c3.1-1.2,5.9-2.8,8.2-4.8L480.9,322.7z"/>
<polygon class="st0" points="374.2,477 307.9,381.1 307.9,477 294.6,477 294.6,357.4 307.3,357.4 373.5,453 373.5,357.4 
	386.8,357.4 386.8,477 "/>
<polygon class="st0" points="422.8,477 422.8,357.4 500.3,357.4 500.3,368.8 436.2,368.8 436.2,411 490.8,411 490.8,422.4 
	436.2,422.4 436.2,465.6 500.3,465.6 500.3,477 "/>
<polygon class="st1" points="295.3,590 295.3,500.9 301.7,500.9 301.7,584.1 346,584.1 346,590 "/>
<path class="st1" d="M406.8,558.5H369l-13,31.4h-7.2l37.4-89.5h4.1L427,590h-7.3L406.8,558.5z M371.4,552.9h33.2L392,520.8
	c-1.1-2.5-2.3-6-3.8-10.5c-1.1,3.9-2.4,7.4-3.7,10.6L371.4,552.9z"/>
<path class="st1" d="M440.1,500.9h25.5c11.5,0,19.9,1.9,25.3,5.6c5.4,3.7,8.1,9.4,8.1,16.9c0,5.2-1.7,9.5-4.9,12.9
	c-3.3,3.4-8.1,5.6-14.4,6.6v0.4c7.4,1.1,12.9,3.3,16.3,6.7c3.5,3.4,5.2,8.2,5.2,14.4c0,8.2-2.8,14.5-8.5,19
	c-5.7,4.4-13.7,6.6-24.1,6.6h-28.5V500.9z M446.6,540.5H467c8.7,0,15.1-1.4,19-4.2c4-2.8,5.9-7.1,5.9-13.1c0-5.9-2.2-10.2-6.7-12.9
	c-4.5-2.7-11.1-4-20-4h-18.7V540.5z M446.6,546v38.5h21.9c17.2,0,25.8-6.7,25.8-20.1c0-12.2-9.1-18.3-27.2-18.3H446.6z"/>
<polygon class="st1" points="358.4,68.1 192.5,160.4 192.5,345.1 213.6,345.1 213.6,172.4 368.7,86 "/>
<polygon class="st1" points="437.2,735 604,642.3 604,457.6 582.9,457.6 582.9,630.3 426.6,717.4 "/>
<rect class="st2" width="800" height="800"/>
</svg>
