<?xml version="1.0" encoding="utf-8"?>
<!-- Generator: Adobe Illustrator 21.1.0, SVG Export Plug-In . SVG Version: 6.00 Build 0)  -->
<svg version="1.1" id="Livello_1" xmlns="http://www.w3.org/2000/svg" xmlns:xlink="http://www.w3.org/1999/xlink" x="0px" y="0px"
	 viewBox="0 0 757.5 291.7" style="enable-background:new 0 0 757.5 291.7;" xml:space="preserve">
<style type="text/css">
	.st0{fill:#3E3E40;}
	.st1{fill:#00588D;}
	.st2{fill:none;}
</style>
<g>
	<path class="st0" d="M198.4,194.8L175,151h-24.7v43.8h-11V96.1h39.5c4.4,0,8.5,0.6,12.3,1.9c3.8,1.2,7,3,9.7,5.4
		c2.7,2.4,4.8,5.3,6.3,8.7c1.5,3.4,2.2,7.3,2.2,11.5c0,7.2-2.1,13.1-6.2,17.7c-4.1,4.6-9.5,7.5-16.2,8.8l24.4,44.8H198.4z
		 M192.5,110c-3.8-3-8.8-4.5-14.8-4.5h-27.5v36.2h27.5c6.1,0,11-1.5,14.8-4.4c3.8-3,5.7-7.5,5.7-13.6
		C198.2,117.6,196.3,113,192.5,110"/>
	<path class="st0" d="M292,171c1-2.9,1.6-6.1,1.6-9.6V96.1h11v66.2c0,4.9-0.9,9.4-2.7,13.5c-0.5,1.1-1,2.2-1.6,3.2L292,171z
		 M232.7,114.1V96.1h11v28.6L232.7,114.1z M293,187.5c-2.9,2.4-6.3,4.3-10.1,5.7c-4.4,1.6-9.2,2.4-14.4,2.4c-5.2,0-10-0.8-14.4-2.4
		c-4.4-1.6-8.2-3.9-11.4-6.9c-3.2-3-5.7-6.5-7.4-10.6c-1.8-4.1-2.7-8.6-2.7-13.5v-32.6l11,10.5v21.2c0,3.8,0.6,7.2,1.7,10.3
		c1.2,3.1,2.8,5.6,5,7.8c2.2,2.1,4.8,3.8,7.9,5c3.1,1.2,6.5,1.8,10.3,1.8c3.8,0,7.2-0.6,10.3-1.8c2.6-1,4.9-2.3,6.8-4L293,187.5z"/>
	<polygon class="st0" points="390.6,194.8 336,115.6 336,194.8 325,194.8 325,96.1 335.4,96.1 390.1,175 390.1,96.1 401,96.1 
		401,194.8 	"/>
	<polygon class="st0" points="430.8,194.8 430.8,96.1 494.7,96.1 494.7,105.5 441.8,105.5 441.8,140.3 486.9,140.3 486.9,149.7 
		441.8,149.7 441.8,185.4 494.7,185.4 494.7,194.8 	"/>
	<polygon class="st1" points="508.3,194.3 508.3,97.9 515.3,97.9 515.3,188 563.2,188 563.2,194.3 	"/>
	<path class="st1" d="M628.9,160.3h-40.9l-14,34h-7.8l40.4-96.8h4.5l39.6,96.8h-7.9L628.9,160.3z M590.6,154.2h36l-13.7-34.8
		c-1.1-2.7-2.5-6.5-4.1-11.3c-1.2,4.2-2.6,8-4.1,11.5L590.6,154.2z"/>
	<path class="st1" d="M665,97.9h27.6c12.4,0,21.5,2,27.4,6.1s8.7,10.2,8.7,18.3c0,5.6-1.8,10.2-5.3,13.9c-3.6,3.7-8.7,6.1-15.6,7.2
		v0.4c8,1.1,13.9,3.6,17.7,7.3c3.8,3.7,5.7,8.9,5.7,15.5c0,8.9-3.1,15.7-9.2,20.5c-6.1,4.8-14.9,7.2-26.1,7.2H665V97.9z
		 M672.1,140.8h22.1c9.4,0,16.3-1.5,20.6-4.5c4.3-3,6.4-7.7,6.4-14.1c0-6.4-2.4-11.1-7.3-14c-4.8-2.9-12.1-4.4-21.6-4.4h-20.3V140.8
		z M672.1,146.8v41.6h23.7c18.6,0,27.9-7.3,27.9-21.8c0-13.2-9.8-19.9-29.4-19.9H672.1z"/>
</g>
<polygon class="st1" points="13.6,236.6 91.2,190.2 91.2,97.9 81.3,97.9 81.3,184.3 8.6,227.8 "/>
<polygon class="st1" points="130.1,41 47.1,87.2 47.1,179.5 57.7,179.5 57.7,93.1 135.2,49.9 "/>
</svg>
